<svg width="20" height="20" viewBox="0 0 20 20" fill="none" xmlns="http://www.w3.org/2000/svg">
<mask id="mask0_463_2048" style="mask-type:alpha" maskUnits="userSpaceOnUse" x="0" y="0" width="20" height="20">
<rect width="20" height="20" fill="#D9D9D9"/>
</mask>
<g mask="url(#mask0_463_2048)">
<path d="M9.99984 12.4791C9.88873 12.4791 9.78123 12.4583 9.67734 12.4166C9.57289 12.375 9.48595 12.3194 9.4165 12.25L5.58317 8.41665C5.43039 8.26387 5.354 8.06942 5.354 7.83331C5.354 7.5972 5.43039 7.40276 5.58317 7.24998C5.73595 7.0972 5.93039 7.02081 6.1665 7.02081C6.40261 7.02081 6.59706 7.0972 6.74984 7.24998L9.99984 10.5L13.2498 7.24998C13.4026 7.0972 13.5971 7.02081 13.8332 7.02081C14.0693 7.02081 14.2637 7.0972 14.4165 7.24998C14.5693 7.40276 14.6457 7.5972 14.6457 7.83331C14.6457 8.06942 14.5693 8.26387 14.4165 8.41665L10.5832 12.25C10.4998 12.3333 10.4096 12.3922 10.3123 12.4266C10.2151 12.4616 10.1109 12.4791 9.99984 12.4791Z" fill="#EEF0F4"/>
</g>
</svg>
