<svg width="64" height="64" viewBox="0 0 64 64" fill="none" xmlns="http://www.w3.org/2000/svg">
<g clip-path="url(#clip0_21_98)">
<path d="M63.3002 32C63.3002 49.3 49.3002 63.3 32.0002 63.3C14.7002 63.3 0.700195 49.3 0.700195 32C0.700195 14.7 14.7002 0.700012 32.0002 0.700012C49.3002 0.700012 63.3002 14.7 63.3002 32ZM32.0002 2.60001C15.7002 2.60001 2.6002 15.7 2.6002 32C2.6002 48.3 15.8002 61.4 32.0002 61.4C48.3002 61.4 61.4002 48.2 61.4002 32C61.4002 15.7 48.3002 2.60001 32.0002 2.60001Z" fill="url(#paint0_linear_21_98)"/>
<path d="M32.0001 2.60001C15.7001 2.60001 2.6001 15.7 2.6001 32C2.6001 48.3 15.8001 61.4 32.0001 61.4C48.3001 61.4 61.4001 48.2 61.4001 32C61.4001 15.7 48.3001 2.60001 32.0001 2.60001ZM32.0001 59.5C16.8001 59.5 4.5001 47.2 4.5001 32C4.5001 16.8 16.8001 4.50001 32.0001 4.50001C47.2001 4.50001 59.5001 16.8 59.5001 32C59.5001 47.2 47.2001 59.5 32.0001 59.5Z" fill="url(#paint1_linear_21_98)"/>
<path opacity="0.4" d="M32 63.3C49.3 63.3 63.3 49.3 63.3 32C63.3 14.7 49.3 0.7 32 0.7C14.7 0.7 0.7 14.7 0.7 32C0.7 49.3 14.7 63.3 32 63.3ZM32 0C49.6 0 64 14.4 64 32C64 49.6 49.6 64 32 64C14.4 64 0 49.6 0 32C0 14.4 14.4 0 32 0Z" fill="url(#paint2_linear_21_98)"/>
<path d="M2.2002 32.1C2.2002 15.7 15.5002 2.20001 32.0002 2.20001C48.5002 2.20001 61.8002 15.6 61.8002 32.1C61.8002 48.5 48.5002 61.8 32.0002 61.8C15.5002 61.8 2.2002 48.5 2.2002 32.1ZM11.5002 11.5C6.2002 16.8 2.9002 24.1 2.9002 32.1C2.9002 40.1 6.2002 47.4 11.4002 52.6C16.7002 57.8 24.0002 61.1 32.0002 61.1C40.0002 61.1 47.3002 57.9 52.5002 52.6C57.8002 47.4 61.0002 40.1 61.0002 32.1C61.0002 24.1 57.7002 16.8 52.5002 11.5C47.3002 6.20001 40.0002 2.90001 32.0002 2.90001C24.0002 2.90001 16.7002 6.20001 11.5002 11.5Z" fill="white"/>
<path opacity="0.4" d="M31.9999 59.6C24.5999 59.6 17.6999 56.7 12.4999 51.5C7.2999 46.3 4.3999 39.4 4.3999 32C4.3999 24.6 7.2999 17.7 12.4999 12.5C17.6999 7.29999 24.5999 4.39999 31.9999 4.39999C39.3999 4.39999 46.2999 7.29999 51.4999 12.5C56.6999 17.7 59.5999 24.6 59.5999 32C59.5999 39.4 56.6999 46.3 51.4999 51.5C46.2999 56.7 39.3999 59.6 31.9999 59.6ZM31.9999 58.8C39.0999 58.8 45.8999 56 50.8999 51C55.9999 45.9 58.6999 39.2 58.6999 32.1C58.6999 25 55.8999 18.2 50.8999 13.2C45.7999 8.09999 39.0999 5.39999 31.9999 5.39999C24.8999 5.39999 18.0999 8.19999 13.0999 13.2C7.9999 18.1 5.1999 24.9 5.1999 32C5.1999 39.1 7.9999 45.9 12.9999 50.9C18.0999 56 24.8999 58.8 31.9999 58.8Z" fill="url(#paint3_linear_21_98)"/>
<path d="M56.2998 45C55.7998 44.6 36.4998 29.3 36.4998 29.3L31.9998 3.60001C31.6998 3.70001 31.2998 4.00001 31.0998 4.40001L27.8998 29.4L7.9998 44.7C7.9998 44.7 7.5998 45.2 7.3998 45.5C7.2998 45.7 7.2998 46 7.2998 46.3L31.8998 36.2L56.4998 46.3C56.6998 45.8 56.4998 45.3 56.2998 45Z" fill="white"/>
<path d="M32.2 32.8L32 37.4L54.6 46.5C55.4 46.9 56 46.7 56.6 46.3L32.5 32.7C32.4 32.6 32.2 32.7 32.2 32.8Z" fill="#565F64"/>
<path d="M32.2002 32.8C32.2002 32.8 33.5002 35.1 35.0002 36.7C37.1002 39 39.9002 40.6 39.9002 40.6L54.6002 46.5C55.4002 46.9 56.0002 46.7 56.6002 46.3L32.5002 32.7C32.4002 32.6 32.2002 32.7 32.2002 32.8Z" fill="url(#paint4_linear_21_98)"/>
<path d="M56.4999 45.4C56.4999 45.3 56.3999 45.2 56.2999 45L35.6999 29.9L32.8999 31.7C32.8999 31.7 33.0999 31.8 33.1999 31.7C33.4999 31.6 34.0999 31.5 34.6999 31.7C35.1999 31.9 56.4999 45.5 56.4999 45.5C56.4999 45.5 56.4999 45.5 56.4999 45.4Z" fill="#A4AAAE" fill-opacity="0.6"/>
<path d="M55.8002 44.5L36.6002 29.3L35.7002 29.9L56.3002 45.1C56.2002 44.9 56.0002 44.7 55.8002 44.5Z" fill="#333E46"/>
<path d="M32.4999 31.3C32.3999 31.4 32.3999 31.4 32.3999 31.4C32.3999 31.4 32.3999 31.6 32.5999 31.5C32.6999 31.4 35.5999 29.9 36.5999 29.3L33.0999 5.30001C32.9999 4.40001 32.5999 4.00001 31.8999 3.70001L32.2999 31.5L32.4999 31.3Z" fill="#565F64"/>
<path d="M30.7999 5.30001V6.60001L28.5999 28.7C28.5999 29 28.6999 29.3 28.9999 29.5L30.2999 30.5L31.1999 6.10001L31.2999 4.20001C30.9999 4.40001 30.8999 4.80001 30.7999 5.30001ZM29.5999 30.9L28.3999 29.9L8.0999 44.6C8.0999 44.6 7.4999 45 7.3999 45.4L8.0999 45L29.3999 31.6C29.7999 31.4 29.8999 31.2 29.5999 30.9Z" fill="#A4AAAE" fill-opacity="0.6"/>
<path d="M31.6998 32.8C31.6998 32.7 31.5998 32.6 31.4998 32.7L7.2998 46.4C7.8998 46.8 8.4998 46.9 9.2998 46.6L31.8998 37.5L31.6998 32.8Z" fill="#565F64"/>
<path d="M32.3999 31.4L32.4999 31.3C32.3999 31.4 32.3999 31.4 32.3999 31.4C32.3999 31.4 32.3999 31.5 32.4999 31.5H32.5999C32.6999 31.4 35.5999 29.9 36.5999 29.3L36.1999 26.4L33.0999 5.29999C33.0999 4.89999 32.9999 4.59999 32.7999 4.39999C32.7999 4.39999 34.2999 24.6 34.2999 26.8C34.2999 29.7 32.3999 31.4 32.3999 31.4Z" fill="url(#paint5_linear_21_98)"/>
<path d="M31.6998 32.8C31.6998 32.7 31.5998 32.6 31.4998 32.7L7.2998 46.4C7.8998 46.8 8.4998 46.9 9.2998 46.6L31.8998 37.5L31.6998 32.8Z" fill="url(#paint6_linear_21_98)" fill-opacity="0.8"/>
<path opacity="0.8" d="M9.3002 46.5L31.9002 37.4L31.7002 33C31.3002 34.2 30.6002 35.5 28.7002 36.5C27.3002 37.3 13.9002 43.9 9.1002 46.2C8.8002 46.4 8.4002 46.5 8.2002 46.6C8.6002 46.8 8.9002 46.7 9.3002 46.5Z" fill="url(#paint7_linear_21_98)"/>
<path d="M32.4999 31.3C32.3999 31.4 32.3999 31.4 32.3999 31.4C32.3999 31.4 32.3999 31.6 32.5999 31.5C32.6999 31.4 35.5999 29.9 36.5999 29.3L33.0999 5.30001C32.9999 4.40001 32.5999 4.00001 31.8999 3.70001L32.2999 31.5L32.4999 31.3Z" fill="url(#paint8_linear_21_98)"/>
<path d="M32.4999 31.3C32.3999 31.4 32.3999 31.4 32.3999 31.4C32.3999 31.4 32.3999 31.6 32.5999 31.5C32.6999 31.4 35.5999 29.9 36.5999 29.3L33.0999 5.30001C32.9999 4.40001 32.5999 4.00001 31.8999 3.70001L32.2999 31.5L32.4999 31.3Z" fill="url(#paint9_linear_21_98)"/>
<path d="M5.1002 44.4C4.4002 42.8 0.400196 35 4.8002 20H3.1002C2.2002 23 1.5002 24.8 1.1002 27.5C1.1002 27.5 0.900195 28.5 0.800195 29.6C0.700195 30.7 0.700195 31.3 0.700195 32C0.700195 38 2.2002 41.5 2.2002 41.5C3.8002 46.5 6.60019 51 10.4002 54.4C13.7002 57.3 18.8002 59.5 23.0002 60.3C22.3002 60.2 10.3002 55.1 5.1002 44.4Z" fill="url(#paint10_linear_21_98)"/>
<path d="M32.4 32.6H31.5C31.6 32.6 31.7 32.6 31.7 32.7L31.9 37.3H32L32.2 32.7C32.2 32.6 32.3 32.5 32.4 32.6Z" fill="url(#paint11_linear_21_98)"/>
<path d="M42 2.29999C52.5 6.29999 62.4 17.3 62.4 31.2C62.4 48 49 61.7 32 61.7V63.3C49 63.3 63.3 49.3 63.3 32C63.3 18.2 54.5 6.59999 42 2.29999Z" fill="url(#paint12_linear_21_98)"/>
<path d="M58.8 20.2C51.8 4.10001 36 3.20001 35.1 3.10001C35.1 3.10001 35.1 3.10001 35 3.10001C47.1 5.30001 54.8 13.2 57.5 21.5V21.6C58.7 24.8 59.3 28.2 59.4 31.9C59.5 35.4 58.7 39.3 57.2 42.9C57.1 43.4 57 44 56.9 44H58.5C63.3 35 61.2 25.9 58.8 20.2Z" fill="url(#paint13_linear_21_98)"/>
<path d="M2.2002 32.1C2.2002 15.7 15.5002 2.20001 32.0002 2.20001C48.5002 2.20001 61.8002 15.6 61.8002 32.1C61.8002 48.5 48.5002 61.8 32.0002 61.8C15.5002 61.8 2.2002 48.5 2.2002 32.1ZM11.5002 11.5C6.2002 16.8 2.9002 24.1 2.9002 32.1C2.9002 40.1 6.2002 47.4 11.4002 52.6C16.7002 57.8 24.0002 61.1 32.0002 61.1C40.0002 61.1 47.3002 57.9 52.5002 52.6C57.8002 47.4 61.0002 40.1 61.0002 32.1C61.0002 24.1 57.7002 16.8 52.5002 11.5C47.3002 6.20001 40.0002 2.90001 32.0002 2.90001C24.0002 2.90001 16.7002 6.20001 11.5002 11.5Z" fill="#FBFBFB"/>
<path d="M7.8999 44.8L28.2999 30.1C29.3999 30.7 31.1999 31.5 31.3999 31.5C31.5999 31.6 31.5999 31.4 31.5999 31.4L29.0999 29.3C28.7999 29.1 28.6999 28.8 28.6999 28.5L31.0999 4.39999C30.9999 4.49999 30.9999 4.69999 30.8999 4.79999C30.7999 4.99999 30.7999 5.09999 30.7999 5.29999L27.2999 29.4L8.0999 44.5C7.9999 44.6 7.8999 44.7 7.8999 44.8Z" fill="#333F47"/>
</g>
<defs>
<linearGradient id="paint0_linear_21_98" x1="730.679" y1="1120.68" x2="5530.72" y2="5140.72" gradientUnits="userSpaceOnUse">
<stop stop-color="white"/>
<stop offset="0.1" stop-color="#CDD0D0"/>
<stop offset="0.2" stop-color="#A5ACAF"/>
<stop offset="0.3" stop-color="#98A0A4"/>
<stop offset="0.4" stop-color="#828A8F"/>
<stop offset="0.5" stop-color="#667075"/>
<stop offset="0.6" stop-color="#535C63"/>
<stop offset="0.7" stop-color="#475158"/>
<stop offset="0.8" stop-color="#434D54"/>
<stop offset="1" stop-color="#475157"/>
</linearGradient>
<linearGradient id="paint1_linear_21_98" x1="692.618" y1="1052.59" x2="5192.58" y2="4832.61" gradientUnits="userSpaceOnUse">
<stop stop-color="#0B1F2A"/>
<stop offset="0.2" stop-color="#333F47"/>
<stop offset="0.5" stop-color="#81898D"/>
<stop offset="0.7" stop-color="#B3B8B8"/>
<stop offset="0.8" stop-color="#DEE0DD"/>
<stop offset="1" stop-color="#FBFBFB"/>
</linearGradient>
<linearGradient id="paint2_linear_21_98" x1="4297.28" y1="6210.69" x2="2107.26" y2="190.72" gradientUnits="userSpaceOnUse">
<stop stop-color="#E1E3E1"/>
<stop offset="0.1" stop-color="#C1C5C4"/>
<stop offset="0.3" stop-color="#9BA1A2"/>
<stop offset="0.5" stop-color="#7D8487"/>
<stop offset="0.7" stop-color="#687074" stop-opacity="0"/>
<stop offset="0.8" stop-color="#5B6469" stop-opacity="0"/>
<stop offset="1" stop-color="#576065" stop-opacity="0"/>
</linearGradient>
<linearGradient id="paint3_linear_21_98" x1="1384.4" y1="374.406" x2="4144.4" y2="5154.39" gradientUnits="userSpaceOnUse">
<stop stop-color="#E1E3E1"/>
<stop offset="0.1" stop-color="#C1C5C4"/>
<stop offset="0.3" stop-color="#9BA1A2"/>
<stop offset="0.5" stop-color="#7D8487"/>
<stop offset="0.7" stop-color="#687074" stop-opacity="0"/>
<stop offset="0.8" stop-color="#5B6469" stop-opacity="0"/>
<stop offset="1" stop-color="#576065" stop-opacity="0"/>
</linearGradient>
<linearGradient id="paint4_linear_21_98" x1="1262.2" y1="726.057" x2="1175.18" y2="869.392" gradientUnits="userSpaceOnUse">
<stop stop-color="#27343C"/>
<stop offset="1" stop-color="#00111E" stop-opacity="0"/>
</linearGradient>
<linearGradient id="paint5_linear_21_98" x1="254.651" y1="2474.4" x2="50.8821" y2="2147.07" gradientUnits="userSpaceOnUse">
<stop offset="0.1" stop-color="#02131F"/>
<stop offset="0.9" stop-color="#02131F" stop-opacity="0"/>
</linearGradient>
<linearGradient id="paint6_linear_21_98" x1="2477.31" y1="629.251" x2="2078.55" y2="743.173" gradientUnits="userSpaceOnUse">
<stop offset="0.2" stop-color="#02131F"/>
<stop offset="0.9" stop-color="#02131F" stop-opacity="0"/>
</linearGradient>
<linearGradient id="paint7_linear_21_98" x1="1268.21" y1="786.886" x2="1242.62" y2="722.927" gradientUnits="userSpaceOnUse">
<stop stop-color="#02131F"/>
<stop offset="0.1" stop-color="#02131F"/>
<stop offset="1" stop-color="#02131F" stop-opacity="0"/>
</linearGradient>
<linearGradient id="paint8_linear_21_98" x1="270.749" y1="1353.69" x2="256.539" y2="1355.36" gradientUnits="userSpaceOnUse">
<stop offset="0.3" stop-color="#02131F"/>
<stop offset="0.8" stop-color="#02131F" stop-opacity="0"/>
</linearGradient>
<linearGradient id="paint9_linear_21_98" x1="271.036" y1="1343.7" x2="260.737" y2="1345.04" gradientUnits="userSpaceOnUse">
<stop offset="0.4" stop-color="#27343C"/>
<stop offset="1" stop-color="#3B474E" stop-opacity="0"/>
</linearGradient>
<linearGradient id="paint10_linear_21_98" x1="740.614" y1="1310" x2="2078.46" y2="2082.01" gradientUnits="userSpaceOnUse">
<stop stop-color="#25323B" stop-opacity="0"/>
<stop offset="0.1" stop-color="#27343C"/>
</linearGradient>
<linearGradient id="paint11_linear_21_98" x1="81.0001" y1="516.7" x2="81.0001" y2="36.7026" gradientUnits="userSpaceOnUse">
<stop offset="0.3" stop-color="#A5ABAF"/>
<stop offset="1" stop-color="#A5ABAF" stop-opacity="0"/>
</linearGradient>
<linearGradient id="paint12_linear_21_98" x1="1602.01" y1="2.29999" x2="1602.01" y2="6102.3" gradientUnits="userSpaceOnUse">
<stop stop-color="#6B7378"/>
<stop offset="0.2" stop-color="#333F47"/>
<stop offset="0.5" stop-color="#27343C"/>
<stop offset="0.8" stop-color="#333F47"/>
<stop offset="1" stop-color="#434D54"/>
</linearGradient>
<linearGradient id="paint13_linear_21_98" x1="1733.61" y1="503.103" x2="633.657" y2="2116.37" gradientUnits="userSpaceOnUse">
<stop offset="0.7" stop-color="#49545B"/>
<stop offset="0.8" stop-color="white" stop-opacity="0"/>
</linearGradient>
<clipPath id="clip0_21_98">
<rect width="64" height="64" fill="white"/>
</clipPath>
</defs>
</svg>
