<svg width="171" height="20" viewBox="0 0 171 20" fill="none" xmlns="http://www.w3.org/2000/svg">
<g clip-path="url(#clip0_21_125)">
<path d="M115.541 11.3846H109.225V12.9231H115.541V11.3846Z" fill="white"/>
<path d="M4.00565 2.46155L3.38943 17.0769V17.3846C3.38943 18.6154 3.69754 18.9231 5.70024 19.0769V19.6923C4.31376 19.5385 3.69754 19.5385 2.92727 19.5385C2.157 19.5385 1.54078 19.5385 0.154297 19.6923V19.0769C2.157 18.9231 2.46511 18.7692 2.46511 17.2308L3.08132 3.38462V3.23078C3.08132 2.00001 2.61916 1.69232 0.770513 1.53847V0.76924C1.84889 0.923086 2.31105 0.923086 3.08132 0.923086C4.1597 0.923086 4.62186 0.923086 5.70024 0.76924L10.9381 15.0769L16.33 0.76924C17.5624 0.923086 18.1786 0.923086 19.1029 0.923086C19.8732 0.923086 20.3354 0.923086 21.4138 0.76924V1.53847C19.5651 1.69232 19.1029 2.00001 19.1029 3.23078V3.38462L19.4111 17.2308C19.4111 18.7692 19.7192 18.9231 21.7219 19.0769V19.6923C19.8732 19.5385 19.257 19.5385 18.1786 19.5385C17.1002 19.5385 16.484 19.5385 14.6354 19.6923V19.0769C16.484 18.9231 16.9462 18.6154 16.9462 17.3846V17.2308L16.6381 2.61539L11.8624 15.0769L11.5543 16L11.0921 17.0769L10.784 18.1539L10.4759 19.0769H10.0138L9.70565 18.1539L9.24349 17.0769L8.93538 16L8.62727 14.9231L4.00565 2.46155ZM28.9624 19.0769C26.3435 19.0769 25.2651 17.0769 25.2651 12.6154H33.7381C33.7381 8.3077 31.8894 6.00001 28.5002 6.00001C25.1111 6.00001 22.9543 8.76924 22.9543 13.0769C22.9543 17.3846 25.1111 20 28.6543 20C31.4273 20 33.2759 18.3077 33.584 15.3846H32.5057C32.1975 17.6923 30.9651 19.0769 28.9624 19.0769ZM25.2651 11.5385C25.5732 8.3077 26.6516 6.61539 28.5002 6.61539C30.3489 6.61539 31.2732 8.15386 31.4273 11.5385H25.2651ZM35.2786 6.92309V6.46155C36.8192 6.3077 37.8975 6.15386 38.9759 5.84616C39.13 6.92309 39.13 7.38462 39.284 8.15386V8.46155C39.9002 6.92309 41.1327 5.84616 42.5192 5.84616C43.9057 5.84616 44.984 6.76924 44.984 8.15386C44.984 8.92309 44.5219 9.53847 43.7516 9.53847C43.1354 9.53847 42.5192 9.07693 42.5192 8.61539C42.5192 8.61539 42.5192 8.46155 42.5192 8.3077V8.00001V7.84616C42.5192 7.38462 42.2111 7.23078 41.5948 7.23078C40.0543 7.23078 39.13 9.07693 39.13 11.8462V17.6923C39.13 18.9231 39.4381 19.0769 41.1327 19.2308V19.8462C39.5921 19.6923 38.9759 19.6923 38.0516 19.6923C36.9732 19.6923 36.5111 19.6923 34.8165 19.8462V19.2308C36.5111 19.0769 36.8192 18.9231 36.8192 17.6923V8.76924V8.3077C36.8192 7.07693 36.6651 6.92309 35.1246 6.92309H35.2786ZM55.9219 5.69232V10.3077H55.3057C54.8435 7.84616 53.7651 6.61539 52.0705 6.61539C49.9138 6.61539 48.6813 8.92309 48.6813 12.9231C48.6813 16.9231 49.7597 18.9231 51.9165 18.9231C53.6111 18.9231 54.6894 17.6923 54.9975 15.2308H56.23C55.9219 18.3077 54.2273 19.8462 51.7624 19.8462C48.5273 19.8462 46.2165 17.0769 46.2165 12.9231C46.2165 8.76924 48.5273 5.84616 51.7624 5.84616C52.9948 5.84616 53.7651 6.15386 54.6894 7.07693L55.4597 5.69232H55.9219ZM64.2408 19.0769C61.6219 19.0769 60.5435 17.0769 60.5435 12.6154H69.0165C69.0165 8.3077 67.1678 6.00001 63.7786 6.00001C60.3894 6.00001 58.2327 8.76924 58.2327 13.0769C58.2327 17.3846 60.3894 20 63.9327 20C66.7057 20 68.5543 18.3077 68.8624 15.3846H67.784C67.4759 17.6923 66.2435 19.0769 64.2408 19.0769ZM60.5435 11.5385C60.8516 8.3077 61.93 6.61539 63.7786 6.61539C65.6273 6.61539 66.5516 8.15386 66.7057 11.5385H60.5435ZM82.1111 16.7692V0.461548C80.7246 0.76924 79.4921 1.07693 77.7976 1.23078V1.69232C79.6462 1.69232 79.8003 1.84616 79.8003 3.38462V8.3077C78.7219 6.61539 77.9516 6.15386 76.4111 6.15386C73.33 6.15386 71.3273 9.07693 71.3273 13.0769C71.3273 17.0769 73.484 20 76.5651 20C78.1057 20 79.3381 19.2308 80.1084 17.6923C80.2624 18.7692 80.2624 18.9231 80.5705 20C81.803 19.6923 82.2651 19.5385 83.8057 19.3846H84.2678V18.9231C82.2651 18.6154 82.1111 18.4615 82.1111 16.7692ZM76.7192 19.2308C74.7165 19.2308 73.6381 17.0769 73.6381 13.0769C73.6381 8.92309 74.5624 6.92309 76.7192 6.92309C78.8759 6.92309 79.9543 9.07693 79.9543 13.2308C79.8002 17.0769 78.7219 19.2308 76.7192 19.2308ZM91.2002 19.0769C88.5813 19.0769 87.503 17.0769 87.503 12.6154H95.9759C95.9759 8.3077 94.1273 6.00001 90.7381 6.00001C87.3489 6.00001 85.1921 8.76924 85.1921 13.0769C85.1921 17.3846 87.3489 20 90.8921 20C93.6651 20 95.5138 18.3077 95.8219 15.3846H94.7435C94.4354 17.6923 93.2029 19.0769 91.2002 19.0769ZM87.503 11.5385C87.8111 8.3077 88.8894 6.61539 90.7381 6.61539C92.5867 6.61539 93.5111 8.15386 93.6651 11.5385H87.503ZM98.2867 20V15.2308H98.903C99.3651 17.8462 100.598 19.0769 102.6 19.0769C104.295 19.0769 105.527 18 105.527 16.4615C105.527 15.5385 105.065 14.9231 103.679 14.1539L102.6 13.6923L101.214 13.2308C99.2111 12.3077 98.4408 11.5385 98.4408 9.84616C98.4408 7.53847 100.135 6.15386 102.754 6.15386C103.833 6.15386 104.603 6.46155 105.681 7.07693L106.144 5.84616H106.606V10.1539H105.989C105.681 7.84616 104.757 6.76924 103.062 6.76924C101.522 6.76924 100.443 7.84616 100.443 9.07693C100.443 10.1539 100.906 10.6154 103.371 11.6923L104.603 12.1539C106.76 13.0769 107.53 14 107.53 15.6923C107.53 18 105.681 19.6923 102.908 19.6923C101.676 19.6923 100.598 19.3846 99.5192 18.4615L98.903 19.6923H98.2867V20ZM128.789 5.38462C128.789 3.84616 128.173 2.61539 127.095 1.84616C126.171 1.07693 125.092 0.76924 123.243 0.76924H115.849V1.53847C117.852 1.69232 118.16 1.84616 118.16 3.38462V17.0769C118.16 18.6154 118.006 18.7692 115.849 18.9231V19.5385H122.935C125.092 19.5385 126.171 19.2308 127.403 18.6154C128.789 17.6923 129.714 16 129.714 14.1539C129.714 12.6154 129.098 11.2308 128.019 10.4615C127.403 10 126.787 9.69232 125.708 9.53847C127.711 8.76924 128.789 7.38462 128.789 5.38462ZM120.471 1.69232H122.935C125.246 1.69232 126.325 2.92309 126.325 5.53847C126.325 6.76924 126.016 7.84616 125.4 8.46155C124.784 9.23078 124.014 9.38463 122.473 9.38463H120.471V1.69232ZM123.243 10.1539C124.784 10.1539 125.554 10.4615 126.171 11.0769C126.787 11.6923 127.249 12.9231 127.249 14.3077C127.249 17.0769 125.862 18.7692 123.243 18.7692H122.165C120.625 18.7692 120.471 18.6154 120.471 17.2308V10.1539H123.243ZM138.033 19.0769C135.414 19.0769 134.335 17.0769 134.335 12.6154H142.808C142.808 8.3077 140.96 6.00001 137.571 6.00001C134.181 6.00001 132.025 8.76924 132.025 13.0769C132.025 17.3846 134.181 20 137.725 20C140.498 20 142.346 18.3077 142.654 15.3846H141.576C141.268 17.6923 140.035 19.0769 138.033 19.0769ZM134.335 11.5385C134.643 8.3077 135.722 6.61539 137.571 6.61539C139.419 6.61539 140.343 8.15386 140.498 11.5385H134.335ZM144.195 7.07693V6.61539C145.889 6.46155 146.814 6.15386 147.892 5.69232C148.046 6.3077 148.046 7.07693 148.2 8.15386C149.279 6.61539 150.357 6.00001 152.052 6.00001C153.746 6.00001 155.287 6.92309 155.749 8.3077C156.057 8.92309 156.211 9.84616 156.211 10.9231V17.6923C156.211 18.9231 156.519 19.0769 158.214 19.2308V19.8462C156.673 19.6923 156.211 19.6923 155.133 19.6923C154.054 19.6923 153.592 19.6923 152.052 19.8462V19.2308C153.592 19.2308 153.9 18.9231 153.9 17.6923V10.7692C153.9 8.3077 153.13 7.38462 151.281 7.38462C149.433 7.38462 148.354 8.61539 148.354 10.9231V17.6923C148.354 18.7692 148.662 19.0769 150.203 19.2308V19.8462C148.662 19.6923 148.2 19.6923 147.122 19.6923C146.198 19.6923 145.581 19.6923 144.041 19.8462V19.2308C145.735 19.0769 146.044 18.9231 146.044 17.6923V8.92309V8.46155C146.044 7.23078 145.889 7.07693 144.503 7.07693C144.503 7.07693 144.349 7.07693 144.195 7.07693ZM159.292 19.6923L166.995 7.07693H163.452C161.603 7.07693 161.141 7.53847 160.216 10H159.6L160.216 6.3077H169.922L162.219 18.9231H165.454C167.303 18.9231 168.227 18.1539 168.998 15.5385H169.614L168.844 19.5385L159.292 19.6923Z" fill="white"/>
</g>
<defs>
<clipPath id="clip0_21_125">
<rect width="171" height="20" fill="white"/>
</clipPath>
</defs>
</svg>
