<svg width="16" height="16" viewBox="0 0 16 16" fill="none" xmlns="http://www.w3.org/2000/svg">
<mask id="mask0_390_2134" style="mask-type:alpha" maskUnits="userSpaceOnUse" x="0" y="0" width="16" height="16">
<rect width="16" height="16" fill="#D9D9D9"/>
</mask>
<g mask="url(#mask0_390_2134)">
<path d="M11.1 8.38335C11.0111 8.38335 10.9278 8.36935 10.85 8.34135C10.7722 8.3138 10.7 8.26669 10.6333 8.20002L7.8 5.36669C7.73333 5.30002 7.68622 5.2278 7.65867 5.15002C7.63067 5.07224 7.61667 4.98891 7.61667 4.90002C7.61667 4.81113 7.63067 4.7278 7.65867 4.65002C7.68622 4.57224 7.73333 4.50002 7.8 4.43335L10.6333 1.60002C10.7 1.53335 10.7722 1.48624 10.85 1.45869C10.9278 1.43069 11.0111 1.41669 11.1 1.41669C11.1889 1.41669 11.2722 1.43069 11.35 1.45869C11.4278 1.48624 11.5 1.53335 11.5667 1.60002L14.4 4.43335C14.4667 4.50002 14.5138 4.57224 14.5413 4.65002C14.5693 4.7278 14.5833 4.81113 14.5833 4.90002C14.5833 4.98891 14.5693 5.07224 14.5413 5.15002C14.5138 5.2278 14.4667 5.30002 14.4 5.36669L11.5667 8.20002C11.5 8.26669 11.4278 8.3138 11.35 8.34135C11.2722 8.36935 11.1889 8.38335 11.1 8.38335ZM2.66667 7.33335C2.47778 7.33335 2.31956 7.26935 2.192 7.14135C2.064 7.0138 2 6.85558 2 6.66669V2.66669C2 2.4778 2.064 2.31935 2.192 2.19135C2.31956 2.0638 2.47778 2.00002 2.66667 2.00002H6.66667C6.85556 2.00002 7.014 2.0638 7.142 2.19135C7.26956 2.31935 7.33333 2.4778 7.33333 2.66669V6.66669C7.33333 6.85558 7.26956 7.0138 7.142 7.14135C7.014 7.26935 6.85556 7.33335 6.66667 7.33335H2.66667ZM9.33333 14C9.14444 14 8.98622 13.936 8.85867 13.808C8.73067 13.6805 8.66667 13.5222 8.66667 13.3334V9.33335C8.66667 9.14446 8.73067 8.98602 8.85867 8.85802C8.98622 8.73046 9.14444 8.66669 9.33333 8.66669H13.3333C13.5222 8.66669 13.6804 8.73046 13.808 8.85802C13.936 8.98602 14 9.14446 14 9.33335V13.3334C14 13.5222 13.936 13.6805 13.808 13.808C13.6804 13.936 13.5222 14 13.3333 14H9.33333ZM2.66667 14C2.47778 14 2.31956 13.936 2.192 13.808C2.064 13.6805 2 13.5222 2 13.3334V9.33335C2 9.14446 2.064 8.98602 2.192 8.85802C2.31956 8.73046 2.47778 8.66669 2.66667 8.66669H6.66667C6.85556 8.66669 7.014 8.73046 7.142 8.85802C7.26956 8.98602 7.33333 9.14446 7.33333 9.33335V13.3334C7.33333 13.5222 7.26956 13.6805 7.142 13.808C7.014 13.936 6.85556 14 6.66667 14H2.66667Z" fill="current"/>
</g>
</svg>
