<svg width="16" height="16" viewBox="0 0 16 16" fill="none" xmlns="http://www.w3.org/2000/svg">
<mask id="mask0_433_678" style="mask-type:alpha" maskUnits="userSpaceOnUse" x="0" y="0" width="16" height="16">
<rect width="16" height="16" fill="#D9D9D9"/>
</mask>
<g mask="url(#mask0_433_678)">
<path d="M2.66683 13.3334C2.30016 13.3334 1.98638 13.203 1.7255 12.9421C1.46416 12.6807 1.3335 12.3667 1.3335 12.0001V4.00008C1.3335 3.63341 1.46416 3.31964 1.7255 3.05875C1.98638 2.79741 2.30016 2.66675 2.66683 2.66675H13.3335C13.7002 2.66675 14.0142 2.79741 14.2755 3.05875C14.5364 3.31964 14.6668 3.63341 14.6668 4.00008V12.0001C14.6668 12.3667 14.5364 12.6807 14.2755 12.9421C14.0142 13.203 13.7002 13.3334 13.3335 13.3334H2.66683ZM8.00016 8.55008C8.05572 8.55008 8.11394 8.54164 8.17483 8.52475C8.23616 8.5083 8.29461 8.48341 8.35016 8.45008L13.0668 5.50008C13.1557 5.44453 13.2224 5.37519 13.2668 5.29208C13.3113 5.20853 13.3335 5.11675 13.3335 5.01675C13.3335 4.79453 13.2391 4.62786 13.0502 4.51675C12.8613 4.40564 12.6668 4.41119 12.4668 4.53341L8.00016 7.33341L3.5335 4.53341C3.3335 4.41119 3.13905 4.4083 2.95016 4.52475C2.76127 4.64164 2.66683 4.80564 2.66683 5.01675C2.66683 5.12786 2.68905 5.22497 2.7335 5.30808C2.77794 5.39164 2.84461 5.45564 2.9335 5.50008L7.65016 8.45008C7.70572 8.48341 7.76416 8.5083 7.8255 8.52475C7.88638 8.54164 7.94461 8.55008 8.00016 8.55008Z" fill="#EEF0F4"/>
</g>
</svg>
