<svg width="20" height="20" viewBox="0 0 20 20" fill="none" xmlns="http://www.w3.org/2000/svg">
<mask id="mask0_463_872" style="mask-type:alpha" maskUnits="userSpaceOnUse" x="0" y="0" width="20" height="20">
<rect width="20" height="20" fill="#D9D9D9"/>
</mask>
<g mask="url(#mask0_463_872)">
<path d="M9.99984 13.3333C11.0415 13.3333 11.9271 12.9689 12.6565 12.24C13.3854 11.5105 13.7498 10.625 13.7498 9.58331C13.7498 8.54165 13.3854 7.65609 12.6565 6.92665C11.9271 6.19776 11.0415 5.83331 9.99984 5.83331C8.95817 5.83331 8.07261 6.19776 7.34317 6.92665C6.61428 7.65609 6.24984 8.54165 6.24984 9.58331C6.24984 10.625 6.61428 11.5105 7.34317 12.24C8.07261 12.9689 8.95817 13.3333 9.99984 13.3333ZM9.99984 11.8333C9.37484 11.8333 8.84373 11.6144 8.4065 11.1766C7.96873 10.7394 7.74984 10.2083 7.74984 9.58331C7.74984 8.95831 7.96873 8.42692 8.4065 7.98915C8.84373 7.55192 9.37484 7.33331 9.99984 7.33331C10.6248 7.33331 11.1562 7.55192 11.594 7.98915C12.0312 8.42692 12.2498 8.95831 12.2498 9.58331C12.2498 10.2083 12.0312 10.7394 11.594 11.1766C11.1562 11.6144 10.6248 11.8333 9.99984 11.8333ZM9.99984 15.8333C8.06928 15.8333 6.30539 15.323 4.70817 14.3025C3.11095 13.2814 1.90262 11.9028 1.08317 10.1666C1.0415 10.0972 1.01373 10.0103 0.999837 9.90581C0.985948 9.80192 0.979004 9.69442 0.979004 9.58331C0.979004 9.4722 0.985948 9.36442 0.999837 9.25998C1.01373 9.15609 1.0415 9.06942 1.08317 8.99998C1.90262 7.26387 3.11095 5.88554 4.70817 4.86498C6.30539 3.84387 8.06928 3.33331 9.99984 3.33331C11.9304 3.33331 13.6943 3.84387 15.2915 4.86498C16.8887 5.88554 18.0971 7.26387 18.9165 8.99998C18.9582 9.06942 18.9859 9.15609 18.9998 9.25998C19.0137 9.36442 19.0207 9.4722 19.0207 9.58331C19.0207 9.69442 19.0137 9.80192 18.9998 9.90581C18.9859 10.0103 18.9582 10.0972 18.9165 10.1666C18.0971 11.9028 16.8887 13.2814 15.2915 14.3025C13.6943 15.323 11.9304 15.8333 9.99984 15.8333Z" fill="#EEF0F4"/>
</g>
</svg>
