<svg width="16" height="16" viewBox="0 0 16 16" fill="none" xmlns="http://www.w3.org/2000/svg">
<mask id="mask0_463_2881" style="mask-type:alpha" maskUnits="userSpaceOnUse" x="0" y="0" width="16" height="16">
<rect width="16" height="16" fill="#D9D9D9"/>
</mask>
<g mask="url(#mask0_463_2881)">
<path d="M8.00026 13.3333C7.81137 13.3333 7.65315 13.2693 7.52559 13.1413C7.39759 13.0137 7.33359 12.8555 7.33359 12.6666V5.21662L4.08359 8.46662C3.95026 8.59995 3.79182 8.66662 3.60826 8.66662C3.42515 8.66662 3.26693 8.59995 3.13359 8.46662C3.00026 8.33328 2.93359 8.17773 2.93359 7.99995C2.93359 7.82217 3.00026 7.66662 3.13359 7.53328L7.53359 3.13328C7.60026 3.06662 7.67248 3.01928 7.75026 2.99128C7.82804 2.96373 7.91137 2.94995 8.00026 2.94995C8.08915 2.94995 8.17537 2.96373 8.25893 2.99128C8.34204 3.01928 8.41137 3.06662 8.46693 3.13328L12.8669 7.53328C13.0003 7.66662 13.0669 7.82217 13.0669 7.99995C13.0669 8.17773 13.0003 8.33328 12.8669 8.46662C12.7336 8.59995 12.5751 8.66662 12.3916 8.66662C12.2085 8.66662 12.0503 8.59995 11.9169 8.46662L8.66693 5.21662V12.6666C8.66693 12.8555 8.60315 13.0137 8.47559 13.1413C8.34759 13.2693 8.18915 13.3333 8.00026 13.3333Z" fill="current"/>
</g>
</svg>
