<svg width="105" height="40" viewBox="0 0 105 40" fill="none" xmlns="http://www.w3.org/2000/svg">
<path d="M48.574 27.1031C48.3767 27.139 48.0807 27.1839 47.6861 27.2377C47.3094 27.3094 46.9238 27.3453 46.5291 27.3453C46.1345 27.3453 45.7758 27.3184 45.4529 27.2646C45.148 27.2108 44.8879 27.1031 44.6726 26.9417C44.4574 26.7803 44.287 26.565 44.1614 26.296C44.0538 26.009 44 25.6413 44 25.1928V9.58744C44.1973 9.55157 44.4843 9.50673 44.861 9.45292C45.2556 9.38117 45.6502 9.34529 46.0448 9.34529C46.4395 9.34529 46.7892 9.3722 47.0942 9.42601C47.417 9.47982 47.6861 9.58744 47.9013 9.74888C48.1166 9.91031 48.278 10.1345 48.3857 10.4215C48.5112 10.6906 48.574 11.0493 48.574 11.4978V27.1031Z" fill="white"/>
<path d="M51.3526 10.4215C51.3526 9.73991 51.5769 9.16592 52.0253 8.69955C52.4917 8.23318 53.1015 8 53.8549 8C54.6083 8 55.2091 8.23318 55.6576 8.69955C56.1239 9.16592 56.3571 9.73991 56.3571 10.4215C56.3571 11.1031 56.1239 11.6771 55.6576 12.1435C55.2091 12.6099 54.6083 12.843 53.8549 12.843C53.1015 12.843 52.4917 12.6099 52.0253 12.1435C51.5769 11.6771 51.3526 11.1031 51.3526 10.4215ZM56.1419 27.1031C55.9446 27.139 55.6486 27.1839 55.254 27.2377C54.8773 27.3094 54.4917 27.3453 54.097 27.3453C53.7024 27.3453 53.3437 27.3184 53.0208 27.2646C52.7159 27.2108 52.4558 27.1031 52.2405 26.9417C52.0253 26.7803 51.8549 26.565 51.7293 26.296C51.6217 26.009 51.5679 25.6413 51.5679 25.1928V14.2422C51.7652 14.2063 52.0522 14.1614 52.4289 14.1076C52.8235 14.0359 53.2181 14 53.6127 14C54.0074 14 54.3571 14.0269 54.6621 14.0807C54.9849 14.1345 55.254 14.2422 55.4692 14.4036C55.6845 14.565 55.8459 14.7892 55.9535 15.0762C56.0791 15.3453 56.1419 15.704 56.1419 16.1525V27.1031Z" fill="white"/>
<path d="M65.4305 13.6502C66.4529 13.6502 67.3767 13.7848 68.2018 14.0538C69.0448 14.3049 69.7534 14.6368 70.3274 15.0493C70.6861 15.3004 70.9641 15.5785 71.1614 15.8834C71.3767 16.1883 71.4843 16.583 71.4843 17.0673V26.4843C71.4843 27.435 71.3049 28.2511 70.9462 28.9327C70.5874 29.6323 70.0942 30.2063 69.4664 30.6547C68.8565 31.1211 68.13 31.4619 67.287 31.6771C66.4619 31.8924 65.574 32 64.6233 32C62.991 32 61.7085 31.7758 60.7758 31.3274C59.843 30.8969 59.3767 30.1883 59.3767 29.2018C59.3767 28.7892 59.4574 28.4215 59.6188 28.0987C59.7982 27.7937 59.9955 27.5605 60.2108 27.3991C60.7309 27.6861 61.3139 27.9283 61.9596 28.1256C62.6233 28.3229 63.3049 28.4215 64.0045 28.4215C64.9731 28.4215 65.7444 28.2601 66.3184 27.9372C66.8924 27.6143 67.1794 27.0942 67.1794 26.3767V25.9462C66.4439 26.2691 65.5471 26.4305 64.4888 26.4305C63.6816 26.4305 62.9103 26.3139 62.1749 26.0807C61.4574 25.8296 60.8206 25.4529 60.2646 24.9507C59.7265 24.4305 59.287 23.7668 58.9462 22.9596C58.6233 22.1525 58.4619 21.1928 58.4619 20.0807C58.4619 18.9865 58.6323 18.0359 58.9731 17.2287C59.3318 16.4215 59.8161 15.7578 60.426 15.2377C61.0538 14.6996 61.7892 14.3049 62.6323 14.0538C63.4933 13.7848 64.426 13.6502 65.4305 13.6502ZM67.0987 17.5516C66.9731 17.4798 66.7848 17.4081 66.5336 17.3363C66.3004 17.2646 66.0045 17.2287 65.6457 17.2287C64.7668 17.2287 64.1031 17.4798 63.6547 17.9821C63.2242 18.4664 63.009 19.1659 63.009 20.0807C63.009 21.1211 63.2242 21.8744 63.6547 22.3408C64.1031 22.7892 64.6682 23.0135 65.3498 23.0135C66.0852 23.0135 66.6682 22.8431 67.0987 22.5022V17.5516Z" fill="white"/>
<path d="M87.2345 27.1031C87.0551 27.157 86.7681 27.2108 86.3735 27.2646C85.9968 27.3184 85.6022 27.3453 85.1897 27.3453C84.795 27.3453 84.4363 27.3184 84.1134 27.2646C83.8085 27.2108 83.5484 27.1031 83.3332 26.9417C83.1179 26.7803 82.9475 26.565 82.822 26.296C82.7143 26.009 82.6605 25.6413 82.6605 25.1928V19.2197C82.6605 18.4843 82.4722 17.9731 82.0955 17.6861C81.7368 17.3812 81.2883 17.2287 80.7502 17.2287C80.3915 17.2287 80.0507 17.2735 79.7278 17.3632C79.4049 17.4529 79.1448 17.5605 78.9475 17.6861V27.1031C78.7681 27.157 78.4811 27.2108 78.0865 27.2646C77.7098 27.3184 77.3152 27.3453 76.9027 27.3453C76.5081 27.3453 76.1493 27.3184 75.8264 27.2646C75.5215 27.2108 75.2614 27.1031 75.0462 26.9417C74.8309 26.7803 74.6605 26.565 74.535 26.296C74.4273 26.009 74.3735 25.6413 74.3735 25.1928V9.58744C74.5708 9.55157 74.8578 9.50673 75.2345 9.45292C75.6291 9.38117 76.0237 9.34529 76.4184 9.34529C76.813 9.34529 77.1628 9.3722 77.4677 9.42601C77.7906 9.47982 78.0596 9.58744 78.2749 9.74888C78.4901 9.91031 78.6516 10.1345 78.7592 10.4215C78.8847 10.6906 78.9475 11.0493 78.9475 11.4978V14.1345C79.1807 14.0448 79.5305 13.9462 79.9968 13.8386C80.4811 13.713 81.0103 13.6502 81.5843 13.6502C83.3601 13.6502 84.7412 14.0987 85.7278 14.9955C86.7323 15.8744 87.2345 17.1928 87.2345 18.9507V27.1031Z" fill="white"/>
<path d="M94.6326 22.6368C94.6326 23.1031 94.7761 23.435 95.0631 23.6323C95.368 23.8296 95.7895 23.9283 96.3276 23.9283C96.5967 23.9283 96.8747 23.9103 97.1617 23.8744C97.4487 23.8206 97.6998 23.7578 97.9151 23.6861C98.0765 23.8834 98.211 24.1076 98.3187 24.3587C98.4442 24.5919 98.507 24.8789 98.507 25.2197C98.507 25.9013 98.2469 26.4574 97.7267 26.8879C97.2245 27.3184 96.3276 27.5336 95.0361 27.5336C93.4577 27.5336 92.2379 27.1749 91.377 26.4574C90.5339 25.7399 90.1124 24.574 90.1124 22.9596V11.4439C90.3097 11.3901 90.5877 11.3363 90.9465 11.2825C91.3231 11.2108 91.7178 11.1749 92.1303 11.1749C92.9196 11.1749 93.5294 11.3184 93.9599 11.6054C94.4083 11.8744 94.6326 12.4574 94.6326 13.3543V15.0762H98.1572C98.2649 15.2735 98.3635 15.5247 98.4532 15.8296C98.5608 16.1166 98.6146 16.4395 98.6146 16.7982C98.6146 17.426 98.4711 17.8834 98.1841 18.1704C97.9151 18.4395 97.5474 18.574 97.081 18.574H94.6326V22.6368Z" fill="white"/>
<path fill-rule="evenodd" clip-rule="evenodd" d="M28.4507 36.1804C26.045 38.5429 22.7471 40 19.109 40C15.4708 40 12.1729 38.5428 9.7672 36.1803C6.51839 35.2781 3.60761 33.1507 1.78856 30C-0.0305274 26.8492 -0.417522 23.2647 0.425613 20C-0.417523 16.7353 -0.0305297 13.1507 1.78856 9.99998C3.60764 6.84924 6.51847 4.72181 9.76733 3.81965C12.1731 1.45714 15.4709 0 19.109 0C22.7472 0 26.045 1.45711 28.4507 3.81958C31.6996 4.72171 34.6105 6.84917 36.4297 9.99998C38.2488 13.1508 38.6357 16.7354 37.7926 20.0001C38.6357 23.2647 38.2487 26.8493 36.4296 30C34.6105 33.1508 31.6996 35.2782 28.4507 36.1804Z" fill="white"/>
<path d="M32.4424 13.3333C32.4424 20.6971 26.4729 26.6667 19.1091 26.6667C11.7453 26.6667 5.77573 20.6971 5.77573 13.3333C5.77573 5.96954 11.7453 0 19.1091 0C26.4729 0 32.4424 5.96954 32.4424 13.3333Z" fill="#FF7A00" fill-opacity="0.2"/>
<path d="M32.4424 26.6667C32.4424 34.0305 26.4729 40 19.1091 40C11.7453 40 5.77573 34.0305 5.77573 26.6667C5.77573 19.3029 11.7453 13.3333 19.1091 13.3333C26.4729 13.3333 32.4424 19.3029 32.4424 26.6667Z" fill="#FF7A00" fill-opacity="0.2"/>
<path d="M20.0022 5.11966C26.3795 8.80156 28.5645 16.9561 24.8826 23.3333C21.2007 29.7106 13.0461 31.8956 6.66889 28.2137C0.291658 24.5318 -1.89334 16.3772 1.78855 10C5.47045 3.62277 13.625 1.43777 20.0022 5.11966Z" fill="#FF7A00" fill-opacity="0.2"/>
<path d="M31.5492 11.7863C37.9265 15.4682 40.1115 23.6228 36.4296 30C32.7477 36.3772 24.5931 38.5622 18.2159 34.8803C11.8387 31.1984 9.65366 23.0439 13.3356 16.6667C17.0175 10.2894 25.172 8.10443 31.5492 11.7863Z" fill="#FF7A00" fill-opacity="0.2"/>
<path d="M6.66892 11.7863C13.0462 8.10442 21.2007 10.2894 24.8826 16.6667C28.5645 23.0439 26.3795 31.1984 20.0023 34.8803C13.625 38.5622 5.47048 36.3772 1.78858 30C-1.89331 23.6228 0.291689 15.4682 6.66892 11.7863Z" fill="#FF7A00" fill-opacity="0.2"/>
<path d="M18.2159 5.11965C24.5932 1.43776 32.7477 3.62276 36.4296 9.99999C40.1115 16.3772 37.9265 24.5318 31.5493 28.2137C25.172 31.8956 17.0175 29.7106 13.3356 23.3333C9.65369 16.9561 11.8387 8.80155 18.2159 5.11965Z" fill="#FF7A00" fill-opacity="0.2"/>
</svg>
