<svg width="20" height="20" viewBox="0 0 20 20" fill="none" xmlns="http://www.w3.org/2000/svg">
<mask id="mask0_463_2104" style="mask-type:alpha" maskUnits="userSpaceOnUse" x="0" y="0" width="20" height="20">
<rect width="20" height="20" fill="#D9D9D9"/>
</mask>
<g mask="url(#mask0_463_2104)">
<path d="M16.0833 7.43746L12.5417 3.93746L13.7083 2.77079C14.0278 2.45135 14.4203 2.29163 14.8858 2.29163C15.3508 2.29163 15.7431 2.45135 16.0625 2.77079L17.2292 3.93746C17.5486 4.2569 17.7153 4.64246 17.7292 5.09413C17.7431 5.54524 17.5903 5.93051 17.2708 6.24996L16.0833 7.43746ZM3.33333 17.5C3.09722 17.5 2.89944 17.42 2.74 17.26C2.58 17.1005 2.5 16.9027 2.5 16.6666V14.3125C2.5 14.2013 2.52083 14.0938 2.5625 13.99C2.60417 13.8855 2.66667 13.7916 2.75 13.7083L11.3333 5.12496L14.875 8.66663L6.29167 17.25C6.20833 17.3333 6.11472 17.3958 6.01083 17.4375C5.90639 17.4791 5.79861 17.5 5.6875 17.5H3.33333Z" fill="#EEF0F4"/>
</g>
</svg>
