<svg width="16" height="16" viewBox="0 0 16 16" fill="none" xmlns="http://www.w3.org/2000/svg">
<mask id="mask0_433_403" style="mask-type:alpha" maskUnits="userSpaceOnUse" x="0" y="0" width="16" height="16">
<rect width="16" height="16" fill="#D9D9D9"/>
</mask>
<g mask="url(#mask0_433_403)">
<path d="M8.00016 11.3333C8.18905 11.3333 8.3475 11.2693 8.4755 11.1413C8.60305 11.0137 8.66683 10.8555 8.66683 10.6666V8.66658H10.6835C10.8724 8.66658 11.0279 8.60258 11.1502 8.47458C11.2724 8.34703 11.3335 8.18881 11.3335 7.99992C11.3335 7.81103 11.2695 7.65258 11.1415 7.52458C11.0139 7.39703 10.8557 7.33325 10.6668 7.33325H8.66683V5.31659C8.66683 5.1277 8.60305 4.97214 8.4755 4.84992C8.3475 4.7277 8.18905 4.66658 8.00016 4.66658C7.81127 4.66658 7.65305 4.73036 7.5255 4.85792C7.3975 4.98592 7.3335 5.14436 7.3335 5.33325V7.33325H5.31683C5.12794 7.33325 4.97238 7.39703 4.85016 7.52458C4.72794 7.65258 4.66683 7.81103 4.66683 7.99992C4.66683 8.18881 4.73061 8.34703 4.85816 8.47458C4.98616 8.60258 5.14461 8.66658 5.3335 8.66658H7.3335V10.6833C7.3335 10.8721 7.3975 11.0277 7.5255 11.1499C7.65305 11.2721 7.81127 11.3333 8.00016 11.3333ZM8.00016 14.6666C7.07794 14.6666 6.21127 14.4915 5.40016 14.1413C4.58905 13.7915 3.8835 13.3166 3.2835 12.7166C2.6835 12.1166 2.20861 11.411 1.85883 10.5999C1.50861 9.78881 1.3335 8.92214 1.3335 7.99992C1.3335 7.0777 1.50861 6.21103 1.85883 5.39992C2.20861 4.58881 2.6835 3.88325 3.2835 3.28325C3.8835 2.68325 4.58905 2.20814 5.40016 1.85792C6.21127 1.50814 7.07794 1.33325 8.00016 1.33325C8.92238 1.33325 9.78905 1.50814 10.6002 1.85792C11.4113 2.20814 12.1168 2.68325 12.7168 3.28325C13.3168 3.88325 13.7917 4.58881 14.1415 5.39992C14.4917 6.21103 14.6668 7.0777 14.6668 7.99992C14.6668 8.92214 14.4917 9.78881 14.1415 10.5999C13.7917 11.411 13.3168 12.1166 12.7168 12.7166C12.1168 13.3166 11.4113 13.7915 10.6002 14.1413C9.78905 14.4915 8.92238 14.6666 8.00016 14.6666ZM8.00016 13.3333C9.47794 13.3333 10.7364 12.8139 11.7755 11.7753C12.8142 10.7361 13.3335 9.4777 13.3335 7.99992C13.3335 6.52214 12.8142 5.2637 11.7755 4.22459C10.7364 3.18592 9.47794 2.66659 8.00016 2.66659C6.52238 2.66659 5.26416 3.18592 4.2255 4.22459C3.18638 5.2637 2.66683 6.52214 2.66683 7.99992C2.66683 9.4777 3.18638 10.7361 4.2255 11.7753C5.26416 12.8139 6.52238 13.3333 8.00016 13.3333Z" fill="white"/>
</g>
</svg>
