<svg width="16" height="16" viewBox="0 0 16 16" fill="none" xmlns="http://www.w3.org/2000/svg">
<mask id="mask0_463_243" style="mask-type:alpha" maskUnits="userSpaceOnUse" x="0" y="0" width="16" height="16">
<rect width="16" height="16" fill="#D9D9D9"/>
</mask>
<g mask="url(#mask0_463_243)">
<path d="M12.0002 4.66667H4.00016V2.66667C4.00016 2.47778 4.06394 2.31933 4.1915 2.19133C4.3195 2.06378 4.47794 2 4.66683 2H11.3335C11.5224 2 11.6806 2.06378 11.8082 2.19133C11.9362 2.31933 12.0002 2.47778 12.0002 2.66667V4.66667ZM12.0002 8.33333C12.1891 8.33333 12.3473 8.26933 12.4748 8.14133C12.6028 8.01378 12.6668 7.85556 12.6668 7.66667C12.6668 7.47778 12.6028 7.31933 12.4748 7.19133C12.3473 7.06378 12.1891 7 12.0002 7C11.8113 7 11.6531 7.06378 11.5255 7.19133C11.3975 7.31933 11.3335 7.47778 11.3335 7.66667C11.3335 7.85556 11.3975 8.01378 11.5255 8.14133C11.6531 8.26933 11.8113 8.33333 12.0002 8.33333ZM5.3335 12.6667H10.6668V10H5.3335V12.6667ZM5.3335 14C4.96683 14 4.65305 13.8696 4.39216 13.6087C4.13083 13.3473 4.00016 13.0333 4.00016 12.6667V11.3333H2.00016C1.81127 11.3333 1.65305 11.2693 1.5255 11.1413C1.3975 11.0138 1.3335 10.8556 1.3335 10.6667V7.33333C1.3335 6.76667 1.52794 6.29178 1.91683 5.90867C2.30572 5.52511 2.77794 5.33333 3.3335 5.33333H12.6668C13.2335 5.33333 13.7086 5.52511 14.0922 5.90867C14.4753 6.29178 14.6668 6.76667 14.6668 7.33333V10.6667C14.6668 10.8556 14.6028 11.0138 14.4748 11.1413C14.3473 11.2693 14.1891 11.3333 14.0002 11.3333H12.0002V12.6667C12.0002 13.0333 11.8697 13.3473 11.6088 13.6087C11.3475 13.8696 11.0335 14 10.6668 14H5.3335Z" fill="#BAC4D1"/>
</g>
</svg>
