<svg width="16" height="16" viewBox="0 0 16 16" fill="none" xmlns="http://www.w3.org/2000/svg">
<mask id="mask0_390_473" style="mask-type:alpha" maskUnits="userSpaceOnUse" x="0" y="0" width="16" height="16">
<rect width="16" height="16" fill="#D9D9D9"/>
</mask>
<g mask="url(#mask0_390_473)">
<path d="M1.3335 8.66665V5.33331C1.3335 4.96665 1.46416 4.65287 1.7255 4.39198C1.98638 4.13065 2.30016 3.99998 2.66683 3.99998H5.3335V2.66665C5.3335 2.29998 5.46416 1.98598 5.7255 1.72465C5.98638 1.46376 6.30016 1.33331 6.66683 1.33331H9.3335C9.70016 1.33331 10.0142 1.46376 10.2755 1.72465C10.5364 1.98598 10.6668 2.29998 10.6668 2.66665V3.99998H13.3335C13.7002 3.99998 14.0142 4.13065 14.2755 4.39198C14.5364 4.65287 14.6668 4.96665 14.6668 5.33331V8.66665H10.0002V7.99998C10.0002 7.81109 9.93638 7.65265 9.80883 7.52465C9.68083 7.39709 9.52238 7.33331 9.3335 7.33331H6.66683C6.47794 7.33331 6.31972 7.39709 6.19216 7.52465C6.06416 7.65265 6.00016 7.81109 6.00016 7.99998V8.66665H1.3335ZM6.66683 3.99998H9.3335V2.66665H6.66683V3.99998ZM7.3335 9.99998V8.66665H8.66683V9.99998H7.3335ZM2.66683 14C2.30016 14 1.98638 13.8695 1.7255 13.6086C1.46416 13.3473 1.3335 13.0333 1.3335 12.6666V9.99998H6.00016V10.6666C6.00016 10.8555 6.06416 11.0138 6.19216 11.1413C6.31972 11.2693 6.47794 11.3333 6.66683 11.3333H9.3335C9.52238 11.3333 9.68083 11.2693 9.80883 11.1413C9.93638 11.0138 10.0002 10.8555 10.0002 10.6666V9.99998H14.6668V12.6666C14.6668 13.0333 14.5364 13.3473 14.2755 13.6086C14.0142 13.8695 13.7002 14 13.3335 14H2.66683Z" fill="white"/>
</g>
</svg>
