<svg width="16" height="16" viewBox="0 0 16 16" fill="none" xmlns="http://www.w3.org/2000/svg">
<mask id="mask0_390_2114" style="mask-type:alpha" maskUnits="userSpaceOnUse" x="0" y="0" width="16" height="16">
<rect width="16" height="16" fill="#D9D9D9"/>
</mask>
<g mask="url(#mask0_390_2114)">
<path d="M8 9.33331C7.81111 9.33331 7.65289 9.26931 7.52533 9.14131C7.39733 9.01376 7.33333 8.85553 7.33333 8.66665C7.33333 8.47776 7.39733 8.31931 7.52533 8.19131C7.65289 8.06376 7.81111 7.99998 8 7.99998C8.18889 7.99998 8.34733 8.06376 8.47533 8.19131C8.60289 8.31931 8.66667 8.47776 8.66667 8.66665C8.66667 8.85553 8.60289 9.01376 8.47533 9.14131C8.34733 9.26931 8.18889 9.33331 8 9.33331ZM5.33333 9.33331C5.14444 9.33331 4.986 9.26931 4.858 9.14131C4.73044 9.01376 4.66667 8.85553 4.66667 8.66665C4.66667 8.47776 4.73044 8.31931 4.858 8.19131C4.986 8.06376 5.14444 7.99998 5.33333 7.99998C5.52222 7.99998 5.68067 8.06376 5.80867 8.19131C5.93622 8.31931 6 8.47776 6 8.66665C6 8.85553 5.93622 9.01376 5.80867 9.14131C5.68067 9.26931 5.52222 9.33331 5.33333 9.33331ZM10.6667 9.33331C10.4778 9.33331 10.3196 9.26931 10.192 9.14131C10.064 9.01376 10 8.85553 10 8.66665C10 8.47776 10.064 8.31931 10.192 8.19131C10.3196 8.06376 10.4778 7.99998 10.6667 7.99998C10.8556 7.99998 11.0138 8.06376 11.1413 8.19131C11.2693 8.31931 11.3333 8.47776 11.3333 8.66665C11.3333 8.85553 11.2693 9.01376 11.1413 9.14131C11.0138 9.26931 10.8556 9.33331 10.6667 9.33331ZM8 12C7.81111 12 7.65289 11.936 7.52533 11.808C7.39733 11.6804 7.33333 11.5222 7.33333 11.3333C7.33333 11.1444 7.39733 10.9862 7.52533 10.8586C7.65289 10.7306 7.81111 10.6666 8 10.6666C8.18889 10.6666 8.34733 10.7306 8.47533 10.8586C8.60289 10.9862 8.66667 11.1444 8.66667 11.3333C8.66667 11.5222 8.60289 11.6804 8.47533 11.808C8.34733 11.936 8.18889 12 8 12ZM5.33333 12C5.14444 12 4.986 11.936 4.858 11.808C4.73044 11.6804 4.66667 11.5222 4.66667 11.3333C4.66667 11.1444 4.73044 10.9862 4.858 10.8586C4.986 10.7306 5.14444 10.6666 5.33333 10.6666C5.52222 10.6666 5.68067 10.7306 5.80867 10.8586C5.93622 10.9862 6 11.1444 6 11.3333C6 11.5222 5.93622 11.6804 5.80867 11.808C5.68067 11.936 5.52222 12 5.33333 12ZM10.6667 12C10.4778 12 10.3196 11.936 10.192 11.808C10.064 11.6804 10 11.5222 10 11.3333C10 11.1444 10.064 10.9862 10.192 10.8586C10.3196 10.7306 10.4778 10.6666 10.6667 10.6666C10.8556 10.6666 11.0138 10.7306 11.1413 10.8586C11.2693 10.9862 11.3333 11.1444 11.3333 11.3333C11.3333 11.5222 11.2693 11.6804 11.1413 11.808C11.0138 11.936 10.8556 12 10.6667 12ZM3.33333 14.6666C2.96667 14.6666 2.65267 14.5362 2.39133 14.2753C2.13044 14.014 2 13.7 2 13.3333V3.99998C2 3.63331 2.13044 3.31954 2.39133 3.05865C2.65267 2.79731 2.96667 2.66665 3.33333 2.66665H4V1.99998C4 1.81109 4.06378 1.65265 4.19133 1.52465C4.31933 1.39709 4.47778 1.33331 4.66667 1.33331C4.85556 1.33331 5.014 1.39709 5.142 1.52465C5.26956 1.65265 5.33333 1.81109 5.33333 1.99998V2.66665H10.6667V1.99998C10.6667 1.81109 10.7307 1.65265 10.8587 1.52465C10.9862 1.39709 11.1444 1.33331 11.3333 1.33331C11.5222 1.33331 11.6804 1.39709 11.808 1.52465C11.936 1.65265 12 1.81109 12 1.99998V2.66665H12.6667C13.0333 2.66665 13.3473 2.79731 13.6087 3.05865C13.8696 3.31954 14 3.63331 14 3.99998V13.3333C14 13.7 13.8696 14.014 13.6087 14.2753C13.3473 14.5362 13.0333 14.6666 12.6667 14.6666H3.33333ZM3.33333 13.3333H12.6667V6.66665H3.33333V13.3333Z" fill="current"/>
</g>
</svg>
