<svg width="16" height="16" viewBox="0 0 16 16" fill="none" xmlns="http://www.w3.org/2000/svg">
<mask id="mask0_390_2127" style="mask-type:alpha" maskUnits="userSpaceOnUse" x="0" y="0" width="16" height="16">
<rect width="16" height="16" fill="#D9D9D9"/>
</mask>
<g mask="url(#mask0_390_2127)">
<path d="M7.99984 13.0333C7.87762 13.0333 7.75828 13.0167 7.64184 12.9833C7.52495 12.95 7.4165 12.9055 7.3165 12.85C6.86095 12.5722 6.38317 12.3611 5.88317 12.2167C5.38317 12.0722 4.8665 12 4.33317 12C3.8665 12 3.40828 12.0611 2.9585 12.1833C2.50828 12.3055 2.07762 12.4778 1.6665 12.7C1.43317 12.8222 1.20828 12.8167 0.991837 12.6833C0.774948 12.55 0.666504 12.3555 0.666504 12.1V4.06666C0.666504 3.94443 0.697171 3.82777 0.758504 3.71666C0.819393 3.60555 0.910948 3.52221 1.03317 3.46666C1.54428 3.19999 2.07762 2.99999 2.63317 2.86666C3.18873 2.73332 3.75539 2.66666 4.33317 2.66666C4.97762 2.66666 5.60828 2.74999 6.22517 2.91666C6.84162 3.08332 7.43317 3.33332 7.99984 3.66666V11.7333C8.5665 11.3778 9.16095 11.1111 9.78317 10.9333C10.4054 10.7555 11.0332 10.6667 11.6665 10.6667C12.0665 10.6667 12.4583 10.7 12.8418 10.7667C13.2249 10.8333 13.6109 10.9333 13.9998 11.0667V3.06666C14.1665 3.12221 14.3305 3.18043 14.4918 3.24132C14.6527 3.30266 14.8109 3.37777 14.9665 3.46666C15.0887 3.52221 15.1805 3.60555 15.2418 3.71666C15.3027 3.82777 15.3332 3.94443 15.3332 4.06666V12.1C15.3332 12.3555 15.2249 12.55 15.0085 12.6833C14.7916 12.8167 14.5665 12.8222 14.3332 12.7C13.9221 12.4778 13.4914 12.3055 13.0412 12.1833C12.5914 12.0611 12.1332 12 11.6665 12C11.1332 12 10.6165 12.0722 10.1165 12.2167C9.6165 12.3611 9.13873 12.5722 8.68317 12.85C8.58317 12.9055 8.47495 12.95 8.3585 12.9833C8.24162 13.0167 8.12206 13.0333 7.99984 13.0333ZM9.88317 9.49999C9.77206 9.59999 9.65273 9.61932 9.52517 9.55799C9.39717 9.4971 9.33317 9.39443 9.33317 9.24999V3.79999C9.33317 3.77777 9.3665 3.69999 9.43317 3.56666L12.0998 0.89999C12.2109 0.788879 12.3332 0.761102 12.4665 0.816657C12.5998 0.872213 12.6665 0.977768 12.6665 1.13332V6.84999C12.6665 6.89443 12.6276 6.97777 12.5498 7.09999L9.88317 9.49999Z" fill="current"/>
</g>
</svg>
