<svg width="20" height="20" viewBox="0 0 20 20" fill="none" xmlns="http://www.w3.org/2000/svg">
<mask id="mask0_463_2110" style="mask-type:alpha" maskUnits="userSpaceOnUse" x="0" y="0" width="20" height="20">
<rect width="20" height="20" fill="#D9D9D9"/>
</mask>
<g mask="url(#mask0_463_2110)">
<path d="M5.8335 17.5C5.37516 17.5 4.98294 17.3369 4.65683 17.0108C4.33016 16.6842 4.16683 16.2917 4.16683 15.8333V5C3.93072 5 3.73266 4.92028 3.57266 4.76083C3.41322 4.60083 3.3335 4.40278 3.3335 4.16667C3.3335 3.93056 3.41322 3.7325 3.57266 3.5725C3.73266 3.41306 3.93072 3.33333 4.16683 3.33333H7.50016C7.50016 3.09722 7.58016 2.89917 7.74016 2.73917C7.89961 2.57972 8.09738 2.5 8.3335 2.5H11.6668C11.9029 2.5 12.101 2.57972 12.261 2.73917C12.4204 2.89917 12.5002 3.09722 12.5002 3.33333H15.8335C16.0696 3.33333 16.2674 3.41306 16.4268 3.5725C16.5868 3.7325 16.6668 3.93056 16.6668 4.16667C16.6668 4.40278 16.5868 4.60083 16.4268 4.76083C16.2674 4.92028 16.0696 5 15.8335 5V15.8333C15.8335 16.2917 15.6704 16.6842 15.3443 17.0108C15.0177 17.3369 14.6252 17.5 14.1668 17.5H5.8335ZM7.50016 13.3333C7.50016 13.5694 7.58016 13.7672 7.74016 13.9267C7.89961 14.0867 8.09738 14.1667 8.3335 14.1667C8.56961 14.1667 8.76766 14.0867 8.92766 13.9267C9.08711 13.7672 9.16683 13.5694 9.16683 13.3333V7.5C9.16683 7.26389 9.08711 7.06583 8.92766 6.90583C8.76766 6.74639 8.56961 6.66667 8.3335 6.66667C8.09738 6.66667 7.89961 6.74639 7.74016 6.90583C7.58016 7.06583 7.50016 7.26389 7.50016 7.5V13.3333ZM10.8335 13.3333C10.8335 13.5694 10.9135 13.7672 11.0735 13.9267C11.2329 14.0867 11.4307 14.1667 11.6668 14.1667C11.9029 14.1667 12.101 14.0867 12.261 13.9267C12.4204 13.7672 12.5002 13.5694 12.5002 13.3333V7.5C12.5002 7.26389 12.4204 7.06583 12.261 6.90583C12.101 6.74639 11.9029 6.66667 11.6668 6.66667C11.4307 6.66667 11.2329 6.74639 11.0735 6.90583C10.9135 7.06583 10.8335 7.26389 10.8335 7.5V13.3333Z" fill="#EEF0F4"/>
</g>
</svg>
