<svg width="16" height="16" viewBox="0 0 16 16" fill="none" xmlns="http://www.w3.org/2000/svg">
<mask id="mask0_390_1227" style="mask-type:alpha" maskUnits="userSpaceOnUse" x="0" y="0" width="16" height="16">
<rect width="16" height="16" fill="#D9D9D9"/>
</mask>
<g mask="url(#mask0_390_1227)">
<path d="M4.00033 14.6667C3.63366 14.6667 3.31988 14.5363 3.05899 14.2754C2.79766 14.0141 2.66699 13.7001 2.66699 13.3334V6.66675C2.66699 6.30008 2.79766 5.98608 3.05899 5.72475C3.31988 5.46386 3.63366 5.33342 4.00033 5.33342H4.66699V4.00008C4.66699 3.07786 4.9921 2.29164 5.64233 1.64141C6.2921 0.991637 7.0781 0.666748 8.00033 0.666748C8.92255 0.666748 9.70877 0.991637 10.359 1.64141C11.0088 2.29164 11.3337 3.07786 11.3337 4.00008V5.33342H12.0003C12.367 5.33342 12.681 5.46386 12.9423 5.72475C13.2032 5.98608 13.3337 6.30008 13.3337 6.66675V13.3334C13.3337 13.7001 13.2032 14.0141 12.9423 14.2754C12.681 14.5363 12.367 14.6667 12.0003 14.6667H4.00033ZM8.00033 11.3334C8.36699 11.3334 8.68099 11.203 8.94233 10.9421C9.20321 10.6807 9.33366 10.3667 9.33366 10.0001C9.33366 9.63342 9.20321 9.31942 8.94233 9.05808C8.68099 8.79719 8.36699 8.66675 8.00033 8.66675C7.63366 8.66675 7.31988 8.79719 7.05899 9.05808C6.79766 9.31942 6.66699 9.63342 6.66699 10.0001C6.66699 10.3667 6.79766 10.6807 7.05899 10.9421C7.31988 11.203 7.63366 11.3334 8.00033 11.3334ZM6.00033 5.33342H10.0003V4.00008C10.0003 3.44453 9.80588 2.9723 9.41699 2.58341C9.0281 2.19453 8.55588 2.00008 8.00033 2.00008C7.44477 2.00008 6.97255 2.19453 6.58366 2.58341C6.19477 2.9723 6.00033 3.44453 6.00033 4.00008V5.33342Z" fill="current"/>
</g>
</svg>
